<svg xmlns="http://www.w3.org/2000/svg" width="84" height="84" viewBox="0 0 86 86" fill="none"><path d="M43 0C19.2521 0 0 19.2517 0 43C0 66.7483 19.2521 86 43 86C66.7479 86 86 66.7483 86 43C86 19.2517 66.7479 0 43 0ZM57.8619 45.2793L36.3619 58.7168C35.9268 58.9884 35.4322 59.125 34.9375 59.125C34.4894 59.125 34.0405 59.0135 33.6344 58.7877C32.7801 58.314 32.25 57.4151 32.25 56.4375V29.5625C32.25 28.5849 32.7801 27.686 33.6344 27.2123C34.4887 26.7359 35.5333 26.7648 36.3619 27.2832L57.8619 40.7207C58.6473 41.2128 59.125 42.0737 59.125 43C59.125 43.9263 58.6473 44.7874 57.8619 45.2793Z" fill="url(#paint0_linear)"></path><g clip-path="url(#clip0)"><path d="M35.658 25.7938C32.4124 23.932 29.7811 25.4572 29.7811 29.1976V56.7998C29.7811 60.5439 32.4124 62.0671 35.658 60.2071L59.7838 46.3712C63.0305 44.5088 63.0305 41.4914 59.7838 39.6295L35.658 25.7938Z" fill="white"></path></g><defs><linearGradient id="paint0_linear" x1="43" y1="0" x2="43" y2="86" gradientUnits="userSpaceOnUse"><stop stop-color="#FF0C86"></stop><stop offset="1" stop-color="#FF7454"></stop></linearGradient><clipPath id="clip0"><rect width="36" height="36" fill="white" transform="translate(28 25)"></rect></clipPath></defs></svg>